<?xml version="1.0" encoding="UTF-8" standalone="no"?>
<!-- Generator: Adobe Illustrator 16.0.0, SVG Export Plug-In . SVG Version: 6.00 Build 0)  -->
<svg xmlns:rdf="http://www.w3.org/1999/02/22-rdf-syntax-ns#" xmlns="http://www.w3.org/2000/svg" enable-background="new 0 0 300 49.848" xml:space="preserve" height="69.853" viewBox="0 0 320.03799 69.852997" width="320.038" version="1.1" y="0px" x="0px" xmlns:cc="http://creativecommons.org/ns#" xmlns:dc="http://purl.org/dc/elements/1.1/"><metadata><rdf:RDF><cc:Work rdf:about=""><dc:format>image/svg+xml</dc:format><dc:type rdf:resource="http://purl.org/dc/dcmitype/StillImage"/><dc:title/></cc:Work></rdf:RDF></metadata>
<path fill="#020303" d="m309.79,46.932-0.921-3.17-0.866-2.898s-2.735-8.914-3.092-10.088c-0.443-1.454-0.883-2.903-1.298-4.313l-0.069-0.243,6.06-7.282-2.848-8.938-30.533,0.03-0.932,1.485-0.365-1.483-30.739,0.032-0.754,1.686-0.297-1.689-30.981,0.035-0.545,2.024-0.207-2.024-31.296,0.03-0.3,3.31-0.097-3.31-31.455,0.033-0.105,3.027-0.326-3.03-31.188,0.034-0.209,1.951-0.558-1.949-15.039,0.013-1.2,8.389-0.685-1.731-0.331-0.03-2.629-6.624-14.848,0.015-0.301,1.609-0.782-1.608-14.702,0.014-0.334,1.502-0.866-1.502-14.576,0.016-1.696,6.532-3.949,0.004-0.757,2.855-6.866-9.378-14.185,0.014-12.123,37.656,12.888,11.915h14.042l2.23-8.393,1.089,1.211h3.757l6.255,7.179,14.429-0.004,0.285-1.358,1.021,1.36,14.541-0.002,0.26-1.469,0.929,1.469,14.679-0.002,1.134-7.871,3.787,7.871,14.875-0.003,0.187-1.801,0.648,1.801,30.942-0.003,0.111-2.862,0.341,2.863,31.191-0.005,0.3-3.128,0.105,3.128,15.302-0.003,0.478-2.198,0.144,2.198,15.116-0.003,0.641-1.887,0.187,1.887h14.951l0.769-1.68,0.223,1.68h14.808l0.889-1.534,0.251,1.533,14.679-0.005,8.486-12.098-0.405-1.939,4.702-0.002,6.64-9.198,5.716,23.235,14.409-0.002,12.026-11.98-0.248-0.906zm-145.759-9.195,0.155-5.141,14.732-0.009,0.128-1.708,0.232,6.853-15.247,0.005z"/>
<polygon points="35.508,8.892,39.484,8.889,41.177,2.342,52.64,2.33,44.56,37.066,32.202,37.07,35.905,22.32,31.444,22.315,29.514,29.5,21.509,29.503,23.505,22.311,18.984,22.324,14.625,37.075,2.494,37.082,13.631,2.369,24.882,2.358,23.016,8.662,26.943,8.807,24.983,15.643,33.681,15.643" fill="#a9a09d" transform="translate(10.012999,10.001)"/>
<polygon points="56.985,2.41,68.447,2.4,61.617,37.146,49.256,37.151" fill="#a9a09d" transform="translate(10.012999,10.001)"/>
<polygon points="78.751,37.056,66.374,37.058,72.858,2.311,84.332,2.3,83.327,8.733,87.255,8.833,86.324,15.553,90.741,15.615,92.626,2.29,104.108,2.28,100.085,37.048,87.695,37.053,89.246,25.979,85.164,25.878,86.188,18.695,81.711,18.611" fill="#a9a09d" transform="translate(10.012999,10.001)"/>
<polygon points="108.494,2.276,135.861,2.248,135.59,8.404,119.491,8.419,118.984,15.512,135.279,15.556,134.985,22.276,118.383,22.287,117.825,29.815,134.653,29.879,134.34,37.037,104.819,37.046" fill="#a9a09d" transform="translate(10.012999,10.001)"/>
<path fill="#a9a09d" d="m305.216,12.093,1.965,6.172-7.992,0.006,0.05,0.191c0.331,1.35,0.688,2.723,1.072,4.125,0.387,1.407,0.795,2.837,1.218,4.286,0.427,1.454,0.863,2.929,1.315,4.405,0.452,1.484,0.911,2.978,1.368,4.471,0.277,0.908,0.555,1.822,0.837,2.748,0.287,0.928,0.573,1.863,0.855,2.802,0.287,0.943,0.568,1.891,0.85,2.838,0.278,0.949,0.557,1.898,0.824,2.847l-12.473,0.004-7.842-28.704-7.998,0.007-1.577-6.171,27.528-0.027z"/>
<polygon points="254.589,36.997,242.139,37,235.763,2.15,263.259,2.123,264.776,8.293,248.589,8.307,250.05,15.285,266.487,15.292,268.187,22.196,251.499,22.205" fill="#a9a09d" transform="translate(10.012999,10.001)"/>
<path fill="#a9a09d" d="m228.656,35.765,1.537,11.245-12.44,0.003-3.85-34.83,27.464-0.027,6.024,34.85-12.443,0.003-1.62-11.228-4.672-0.016zm8.064-13.679-0.699-4.424-5.437,0.006,0.5,4.054-4.268-0.034-0.55-4.017-5.26,0.007,0.553,4.42,4.829-0.002,0.222,1.626-2.427,0.002,0.887,6.814,2.914-0.003-0.219-2.317,4.32-0.017,0.361,2.331,2.954-0.002-1.036-6.783-2.407-0.013-0.209-1.646,4.972-0.002"/>
<path fill="#a9a09d" d="m207.084,28.979,4.104-0.003,1.818,18.037-12.425,0.007-1.109-14.684-4.6-0.113,0.955,14.797-12.423,0.007-1.335-34.813,27.432-0.026,1.3,12.917-4.094-0.004,0.377,3.878zm-8.105-3.456-0.538-7.162-4.465,0.001,0.461,7.163,4.542-0.002"/>
<polygon points="140.254,2.246,139.083,37.034,168.646,37.026,168.442,29.873,151.538,29.879,151.919,8.39,167.833,8.377,167.657,2.217" fill="#a9a09d" transform="translate(10.012999,10.001)"/>
<path fill="#282729" d="m14.128,47.081c-0.891,0-1.095,0.505-0.451,1.122l8.792,8.427c0.642,0.615,1.899,1.122,2.791,1.122h7.74c0.892,0,1.122-0.534,0.515-1.187l-7.77-8.304c-0.607-0.65-1.836-1.184-2.728-1.184l-8.889,0.004z"/>
<path fill="#282729" d="m43.837,47.072c-0.892,0-1.155,0.56-0.582,1.243l6.865,8.191c0.572,0.686,1.77,1.244,2.662,1.244h8.116c0.892,0,1.186-0.585,0.654-1.301l-6.011-8.08c-0.533-0.716-1.698-1.302-2.59-1.301l-9.114,0.004z"/>
<path fill="#282729" d="m33.142,39.503c-0.891,0-1.138,0.545-0.546,1.215l7.639,8.623c0.592,0.668,1.671,1.186,2.401,1.15,0.727-0.034,0.904-0.66,0.391-1.39l-0.532-0.754c-0.514-0.729-0.74-2.029-0.501-2.89l0.148-0.538c0.24-0.858-0.02-2.135-0.573-2.834l-1.038-1.31c-0.553-0.7-1.735-1.272-2.626-1.272h-4.763z"/>
<path fill="#282729" d="m60.89,47.152c-0.893,0.001-1.188,0.59-0.66,1.308l5.872,7.984c0.526,0.719,1.689,1.307,2.581,1.307h7.994c0.891,0,1.233-0.617,0.757-1.373l-4.943-7.857c-0.475-0.756-1.592-1.374-2.484-1.372l-9.117,0.003z"/>
<path fill="#282729" d="m78.008,47.059c-0.891,0-1.241,0.623-0.775,1.384l4.764,7.799c0.466,0.76,1.573,1.383,2.466,1.383h7.866c0.893,0,1.302-0.655,0.907-1.456l-3.755-7.658c-0.393-0.801-1.444-1.455-2.336-1.455l-9.137,0.003z"/>
<path fill="#282729" d="m99.33,47.053c-0.891,0-1.314,0.662-0.939,1.471l3.586,7.755c0.376,0.81,1.411,1.471,2.303,1.471h8.12c0.892,0,1.371-0.685,1.063-1.522l-2.807-7.659c-0.308-0.837-1.287-1.521-2.18-1.521l-9.146,0.005z"/>
<path fill="#282729" d="m116.453,47.048c-0.891,0-1.375,0.688-1.075,1.525l2.645,7.397c0.299,0.842,1.276,1.528,2.167,1.528h24.02c0.892,0,1.519-0.724,1.394-1.605l-1.026-7.251c-0.124-0.884-0.958-1.605-1.847-1.605l-26.278,0.011z"/>
<path fill="#282729" d="m150.717,47.035c-0.891,0-1.543,0.725-1.447,1.613l0.808,7.491c0.096,0.888,0.903,1.612,1.795,1.612h23.896c0.893,0,1.708-0.725,1.812-1.61l0.887-7.503c0.105-0.887-0.541-1.611-1.431-1.61l-26.32,0.007z"/>
<path fill="#282729" d="m185.025,47.025c-0.892,0-1.713,0.725-1.826,1.61l-0.935,7.381c-0.113,0.886,0.524,1.609,1.417,1.609h7.997c0.892,0,1.792-0.71,1.997-1.577l1.776-7.451c0.203-0.868-0.355-1.577-1.247-1.576l-9.179,0.004z"/>
<path fill="#282729" d="m202.201,47.019c-0.892,0-1.79,0.711-1.997,1.579l-1.737,7.324c-0.206,0.868,0.355,1.578,1.248,1.578h7.996c0.891,0,1.862-0.688,2.157-1.53l2.603-7.426c0.292-0.841-0.194-1.53-1.086-1.529l-9.184,0.004z"/>
<path fill="#282729" d="m219.374,47.012c-0.894,0-1.867,0.688-2.163,1.529l-2.668,7.557c-0.297,0.84,0.188,1.528,1.079,1.528h7.989c0.892,0,1.932-0.662,2.31-1.471l3.586-7.677c0.377-0.809-0.043-1.47-0.934-1.47l-9.199,0.004z"/>
<path fill="#282729" d="m236.569,47.007c-0.892,0.001-1.941,0.656-2.331,1.458l-3.75,7.702c-0.39,0.803,0.021,1.458,0.911,1.458h8.245c0.893,0,1.987-0.631,2.432-1.403l4.503-7.812c0.447-0.771,0.082-1.403-0.811-1.403h-9.199z"/>
<path fill="#282729" d="m253.775,47c-0.891,0-2.002,0.624-2.465,1.386l-4.782,7.854c-0.464,0.761-0.114,1.385,0.776,1.385h8.117c0.892,0,2.046-0.594,2.563-1.321l5.681-7.985c0.516-0.727,0.211-1.322-0.683-1.322l-9.207,0.003z"/>
<path fill="#282729" d="m296.727,46.987c-0.892,0-2.104,0.546-2.694,1.215l-7.135,8.081c-0.591,0.669-0.344,1.215,0.548,1.215h7.737c0.894,0,2.144-0.51,2.784-1.131l8.455-8.253c0.636-0.622,0.429-1.131-0.464-1.13l-9.231,0.003z"/>
<path fill="#020303" d="m21.597,18.146c-0.083,0.225,0.578,0.413,1.469,0.415l8.501,0.035c0.892,0.004,1.63-0.189,1.644-0.426,0.012-0.239-0.708-0.434-1.6-0.434h-8.242c-0.893-0.001-1.69,0.184-1.772,0.41"/>
<path fill="#020303" d="m21.007,35.812c0.277-0.847-0.224-1.541-1.115-1.541h-2.077c-0.891,0-1.62,0.171-1.62,0.378,0,0.208,0.729,0.38,1.62,0.38h1.028c0.891,0,1.394,0.692,1.115,1.54l-1.89,5.753c-0.277,0.849,0.225,1.542,1.117,1.542h6.369c0.893,0,1.622-0.171,1.622-0.379s-0.729-0.378-1.622-0.378h-5.322c-0.892,0-1.394-0.695-1.115-1.542l0.151-0.453c0.278-0.848,1.236-1.541,2.127-1.541h4.916c0.893,0,1.623-0.17,1.623-0.377,0-0.21-0.73-0.379-1.623-0.379h-4.668c-0.891,0-1.393-0.692-1.115-1.541l0.479-1.462z"/>
<path fill="#020303" d="m54.907,19.635c0.121-0.882-0.512-1.606-1.402-1.606l-2.464,0.003c-0.892,0.001-1.685,0.171-1.765,0.378-0.08,0.205,0.587,0.375,1.479,0.375h1.885c0.892,0,1.524,0.723,1.403,1.607l-0.346,2.552c-0.12,0.883-0.948,1.606-1.838,1.606h-7.789c-0.892,0-1.621,0.171-1.621,0.378,0,0.208,0.729,0.379,1.621,0.379h15.311c0.891,0,1.621-0.171,1.621-0.379,0-0.207-0.729-0.378-1.621-0.378h-3.519c-0.891,0-1.525-0.723-1.403-1.606l0.448-3.309z"/>
<path fill="#020303" d="m65.605,42.822c0.16-0.878,0.057-1.221-0.229-0.765-0.287,0.454-0.655,1.544-0.82,2.423l-0.241,1.286c-0.165,0.875,0.11,2.197,0.611,2.936l0.408,0.6c0.502,0.738,1.302,1.63,1.779,1.984,0.476,0.354,0.461,0.038-0.035-0.704l-1.368-2.046c-0.496-0.742-0.771-2.065-0.61-2.943l0.505-2.771z"/>
<path fill="#020303" d="m77.792,19.376c0-0.208-0.728-0.365-1.619-0.347l-3.196,0.062c-0.891,0.019-1.252,0.174-0.801,0.347,0.451,0.174,1.55,0.317,2.441,0.317h1.555c0.892,0,1.62-0.171,1.62-0.379"/>
<path fill="#020303" d="m82.49,44.66c0.195-0.871,0.097-1.198-0.214-0.728-0.309,0.472-0.681,1.365-0.827,1.985-0.146,0.622-0.029,1.751,0.261,2.508,0.289,0.759,0.789,1.719,1.11,2.133,0.323,0.413,0.358,0.06,0.077-0.787l-0.412-1.237c-0.281-0.847-0.354-2.253-0.162-3.123l0.167-0.751z"/>
<path fill="#020303" d="m79.434,35.869c-0.892-0.044-1.629,0.087-1.642,0.296-0.009,0.208,0.712,0.414,1.602,0.46l9.064,0.459c0.889,0.044,1.851,0.443,2.135,0.884,0.284,0.439,0.659,0.708,0.833,0.596,0.176-0.113,0.041-0.641-0.302-1.171-0.341-0.53-1.353-1.002-2.239-1.047l-9.451-0.477z"/>
<path fill="#020303" d="m89.028,18.17c0.346,0.241,1.359,0.438,2.251,0.438h0.689c0.891,0,1.622-0.17,1.622-0.38,0-0.206-0.731-0.395-1.622-0.415l-1.951-0.042c-0.891-0.022-1.336,0.159-0.989,0.399"/>
<path fill="#020303" d="m99.848,36.097c-0.89,0.038-1.614,0.24-1.605,0.447,0.008,0.208,0.745,0.347,1.634,0.309l5.265-0.223c0.891-0.038,1.511,0.653,1.377,1.535l-1.1,7.28c-0.136,0.88-0.035,2.3,0.224,3.155l0.229,0.763c0.259,0.853,0.772,1.982,1.146,2.507,0.374,0.526,0.468,0.257,0.213-0.597l-0.814-2.727c-0.254-0.855-0.355-2.276-0.222-3.156l1.21-8.022c0.133-0.881-0.486-1.573-1.378-1.534l-6.179,0.263z"/>
<path fill="#020303" d="m101.652,17.987c-0.036,0.205,0.654,0.495,1.535,0.643l8.973,1.054c0.884,0.11,1.608,0.028,1.608-0.18,0-0.21-0.724-0.471-1.608-0.582l-8.845-1.038c-0.881-0.149-1.63-0.101-1.663,0.103"/>
<path fill="#020303" d="m121.177,40.815c0.029-0.892-0.672-1.619-1.565-1.619h-3.209c-0.891,0-1.622,0.171-1.622,0.378,0,0.208,0.731,0.379,1.622,0.379h2.424c0.891,0,1.595,0.729,1.565,1.62l-0.13,3.744c-0.031,0.891,0.125,2.326,0.346,3.189l0.599,2.341c0.223,0.864,0.637,1.993,0.926,2.508,0.286,0.517,0.361,0.226,0.163-0.643l-0.97-4.277c-0.196-0.869-0.333-2.31-0.303-3.201l0.154-4.419z"/>
<path fill="#020303" d="m116.675,22.407c0,0.208,0.73,0.379,1.622,0.379h3.066c0.891,0,1.99-0.2,2.441-0.441,0.452-0.244,0.09-0.431-0.801-0.418l-4.707,0.076c-0.891,0.014-1.621,0.196-1.621,0.404"/>
<path fill="#020303" d="m137.541,26.298c-0.021-0.892-0.21-1.622-0.422-1.622-0.205,0-0.376,0.73-0.376,1.622v3.7c0,0.892,0.197,1.194,0.441,0.675,0.242-0.522,0.422-1.676,0.401-2.569l-0.044-1.806z"/>
<path fill="#020303" d="m141.232,40.098c-0.032,0.892-0.786,1.619-1.679,1.619h-2.453c-0.891,0-1.622,0.731-1.622,1.623v2.438c0,0.892,0.169,1.621,0.38,1.621,0.209,0,0.379-0.729,0.379-1.621v-1.681c0-0.891,0.729-1.619,1.623-1.619h2.428c0.891,0,1.645-0.729,1.675-1.622l0.026-0.785c0.031-0.892-0.115-1.626-0.323-1.635-0.208-0.007-0.405,0.716-0.435,1.606v0.056z"/>
<path fill="#020303" d="m172.279,41.786c-0.174,0.332-0.239,1.33-0.144,2.216l0.161,1.529c0.093,0.886,0.069,2.335-0.053,3.217l-1.067,7.726c-0.121,0.882-0.012,1.594,0.242,1.583,0.256-0.012,0.555-0.746,0.665-1.631l0.949-7.663c0.11-0.886,0.122-2.336,0.026-3.222l-0.291-2.746c-0.096-0.886-0.314-1.341-0.488-1.009"/>
<path fill="#020303" d="m149.492,53.711c0,0.208,0.729,0.379,1.621,0.379h0.42c0.891,0,1.62-0.17,1.62-0.379,0-0.207-0.729-0.378-1.62-0.378h-0.42c-0.892,0-1.621,0.171-1.621,0.378"/>
<path fill="#020303" d="m152.397,23.415c0.417,0.208,1.468,0.54,2.338,0.737l6.247,1.115c0.82,0.353,1.557,0.487,1.639,0.295,0.084-0.191-0.541-0.577-1.388-0.858l-8.002-1.364c-0.875-0.168-1.251-0.133-0.834,0.075"/>
<path fill="#020303" d="m152.268,30.421c0.347-0.244-0.098-0.416-0.989-0.383l-0.292,0.01c-0.894,0.032-1.621,0.229-1.621,0.437s0.511,0.378,1.134,0.378c0.626,0,1.42-0.199,1.768-0.442"/>
<path fill="#020303" d="m187.558,23.793c0.053,0.487,0.826,0.884,1.72,0.884h0.707c0.891,0,1.733,0.039,1.864,0.084,0.137,0.047,0.638,0.404,0.816,0.297s0.048-0.404-0.288-0.66c-0.337-0.256-1.379-0.471-2.271-0.474h-0.15c-0.893-0.001-1.703-0.729-1.803-1.613l-0.994-8.938c-0.1-0.888-0.351-1.593-0.557-1.569-0.205,0.023-0.296,0.767-0.196,1.653l0.788,7.086c0.101,0.886-0.553,1.611-1.442,1.611h-2.574c-0.892,0-1.62,0.17-1.62,0.376,0,0.208,0.729,0.378,1.62,0.378h2.658c0.892,0,1.666,0.398,1.722,0.885"/>
<path fill="#020303" d="m186.473,41.579c0.06,0.889-0.253,2.249-0.698,3.023l-0.678,0.763c-0.207,0.868-0.211,1.612-0.008,1.656,0.205,0.043,0.595-0.615,0.866-1.465,0,0,0.103-0.37,0.432-0.837,0.325-0.47,0.688-0.854,0.798-0.854,0.112,0,0.155-0.729,0.094-1.618l-0.282-4.087c-0.063-0.888,0.618-1.616,1.51-1.616h6.074c0.892,0,1.62-0.171,1.62-0.379,0-0.207-0.729-0.38-1.62-0.38h-6.884c-0.891,0-1.574,0.729-1.512,1.619l0.288,4.175z"/>
<path fill="#020303" d="m199.228,38.438c0,0.208,0.729,0.379,1.621,0.379h4.078c0.893,0,1.934-0.171,2.316-0.379,0.387-0.209-0.031-0.381-0.922-0.381l-5.473,0.002c-0.89,0-1.62,0.171-1.62,0.379"/>
<path fill="#020303" d="m202.73,27.748c0.227,0.187,1.14,0.341,2.031,0.341h1.177c0.893,0,1.622-0.171,1.622-0.378,0-0.21-0.729-0.37-1.622-0.357l-1.996,0.029c-0.893,0.013-1.436,0.177-1.212,0.365"/>
<path fill="#020303" d="m181.935,54.342c-0.017,0.207,0.699,0.43,1.588,0.493l9.013,0.65c0.888,0.065,1.628-0.053,1.645-0.261,0.014-0.207-0.702-0.428-1.591-0.493l-9.009-0.648c-0.889-0.064-1.63,0.052-1.646,0.259"/>
<path fill="#020303" d="m234.551,38.167c-0.891,0.011-1.619,0.188-1.618,0.396s0.732,0.371,1.623,0.363l11.021,1.224c0.888,0.086,1.674-0.003,1.744-0.199,0.074-0.193-0.594-0.427-1.479-0.517l-11.291-1.267z"/>
<path fill="#020303" d="m268.911,24.171c-0.195,0.07-0.316,0.854-0.274,1.746l1.007,5.078c-0.382,0.806-0.543,1.541-0.356,1.635,0.188,0.093,0.659-0.488,1.045-1.291l-0.983-5.675c-0.046-0.891-0.242-1.562-0.439-1.493"/>
<path fill="#020303" d="m263.061,14.705c-0.797,0-1.656-0.679-1.911-1.506-0.255-0.831-0.624-1.458-0.824-1.397-0.198,0.061-0.147,0.809,0.115,1.661l0.139,0.451c0.26,0.853,1.129,1.55,1.931,1.55,0.8,0,1.696,0.689,1.983,1.534l0.377,1.092c0.289,0.844,0.688,1.479,0.881,1.411,0.197-0.066,0.12-0.811-0.169-1.655l-0.55-1.607c-0.288-0.843-1.176-1.534-1.972-1.534"/>
<path fill="#020303" d="m293.001,36.67c-0.89,0-1.619,0.17-1.619,0.379,0,0.21,0.729,0.381,1.619,0.381h10.392c0.893,0,1.621-0.171,1.621-0.381,0-0.209-0.729-0.379-1.621-0.379h-10.392z"/>
<path fill="#020303" d="m300.847,18.871c0.2-0.054,0.175-0.803-0.063-1.663l-1.04-3.815c-0.232-0.861-0.59-1.52-0.793-1.464-0.198,0.054-0.173,0.803,0.063,1.663l1.041,3.814c0.237,0.859,0.592,1.519,0.792,1.465"/>
<path fill="#020303" d="m48.949,18.649h3.396c0.891,0,0.904-0.142,0.029-0.311l-1.171-0.23c-0.876-0.171-1.546-0.013-1.494,0.353l-0.76,0.188z"/>
<path fill="#020303" d="m29.95,52.257c-0.345-0.382-1.354-0.606-2.237-0.499l-1.959,0.242c-0.885,0.108-0.885,0.282,0.001,0.387l3.215,0.378c0.887,0.103,1.328-0.125,0.98-0.508"/>
<path fill="#020303" d="m62.076,56.425c-0.241-0.382-1.167-0.634-2.057-0.557l-4.215,0.357c-0.889,0.074-0.889,0.203-0.002,0.284l5.103,0.462c0.888,0.08,1.417-0.165,1.171-0.546"/>
<path fill="#020303" d="m100.959,54.847c-0.105-0.346,0.538-0.609,1.431-0.584l1.05,0.032c0.891,0.024,0.921,0.25,0.064,0.499l-0.801,0.231c-0.856,0.248-1.641,0.168-1.744-0.178"/>
<path fill="#020303" d="m145.452,52.386c-0.068-0.521-0.845-0.845-1.728-0.719l-2.98,0.425c-0.879,0.126-0.879,0.342-0.001,0.482l3.231,0.507c0.882,0.139,1.546-0.174,1.478-0.695"/>
<path fill="#020303" d="m149.174,54.189c-0.045-0.52,0.646-0.861,1.53-0.76l0.093,0.011c0.888,0.101,0.956,0.5,0.151,0.886l-0.229,0.11c-0.805,0.384-1.5,0.273-1.545-0.247"/>
<path fill="#020303" d="m121.029,45.506c-0.105-0.764-0.304-0.821-0.443-0.126s-0.044,1.961,0.212,2.815l0.204,0.679c0.257,0.854,0.417,0.825,0.353-0.063l-0.02-0.299c-0.066-0.89-0.201-2.242-0.306-3.006"/>
<path fill="#020303" d="m135.796,46.073c-0.174-0.313-0.291,0.16-0.259,1.05l0.013,0.423c0.032,0.891,0.17,1.052,0.312,0.359,0.137-0.695,0.109-1.519-0.066-1.832"/>
<path fill="#020303" d="m105.881,45.757c-0.036-0.765-0.176-0.765-0.314,0-0.139,0.765-0.022,2.082,0.257,2.928l0.236,0.709c0.281,0.846,0.393,0.817,0.246-0.061l-0.096-0.586c-0.146-0.882-0.296-2.225-0.329-2.99"/>
<path fill="#020303" d="m81.831,46.326c-0.139-0.313-0.369-0.255-0.504,0.126-0.139,0.382,0.005,1.09,0.317,1.577,0.313,0.485,0.542,0.43,0.505-0.126-0.036-0.555-0.178-1.264-0.318-1.577"/>
<path fill="#020303" d="m65.042,45.791c-0.172-0.765-0.484-0.68-0.692,0.187v0.003c-0.209,0.866,0.133,2.088,0.756,2.713,0.624,0.626,0.935,0.541,0.694-0.188-0.245-0.731-0.584-1.951-0.758-2.715"/>
<path fill="#020303" d="m34.812,44.686c-0.243-0.313,0.286-0.504,1.175-0.427l2.571,0.223c0.889,0.077,0.891,0.232,0.008,0.346l-1.704,0.22c-0.883,0.114-1.806-0.049-2.05-0.362"/>
<path fill="#020303" d="m172.491,45.216c0.127-0.882,0.38-0.891,0.57-0.021l0.077,0.365c0.188,0.872,0.154,2.291-0.074,3.153l-0.309,1.158c-0.228,0.86-0.436,0.836-0.461-0.055l-0.032-1.048c-0.026-0.892,0.056-2.343,0.182-3.227l0.047-0.325z"/>
<path fill="#020303" d="m162.368,25.751c0,0.382-0.604,0.282-1.341-0.217l-0.476-0.323c-0.738-0.502-0.633-0.742,0.235-0.534l0.005,0.001c0.868,0.21,1.577,0.69,1.577,1.073"/>
<path fill="#020303" d="m211.663,51.437c0.103-0.347-0.541-0.61-1.434-0.585l-1.174,0.034c-0.89,0.026-0.916,0.243-0.06,0.486l0.919,0.257c0.858,0.24,1.645,0.154,1.749-0.192"/>
<path fill="#020303" d="m205.349,46.074c-0.244-0.521-0.416-0.217-0.382,0.674l0.006,0.166c0.035,0.89,0.231,1.279,0.439,0.863,0.21-0.417,0.182-1.182-0.063-1.703"/>
<path fill="#020303" d="m227.759,53.016c0.138-0.382-0.476-0.635-1.363-0.565l-3.081,0.248c-0.889,0.07-0.896,0.237-0.013,0.372l2.602,0.396c0.879,0.134,1.714-0.069,1.855-0.451"/>
<path fill="#020303" d="m224.603,46.263c-0.14-0.418-0.338-0.446-0.442-0.064-0.103,0.382-0.074,1.235,0.063,1.896,0.138,0.659,0.338,0.688,0.44,0.063,0.105-0.626,0.078-1.478-0.061-1.895"/>
<path fill="#020303" d="m269.351,32.819c-0.313-0.104-0.284-0.843,0.064-1.641,0.346-0.799,0.602-0.725,0.566,0.167l-0.001,0.044c-0.034,0.891-0.317,1.536-0.629,1.43"/>
<path fill="#020303" d="m248.143,52.132c0.313-0.381,1.29-0.586,2.171-0.454l4.367,0.655c0.883,0.132,0.876,0.262-0.014,0.286l-5.471,0.161c-0.891,0.027-1.363-0.266-1.053-0.648"/>
<path fill="#020303" d="m289.547,52.132c0.382-0.521,1.412-0.809,2.289-0.639l4.012,0.775c0.874,0.169,0.862,0.348-0.028,0.402l-5.347,0.314c-0.893,0.054-1.308-0.33-0.926-0.852"/>
<path fill="#020303" d="m291.191,36.984c-0.174-0.59,0.403-0.965,1.285-0.834l3.61,0.533c0.88,0.131,0.884,0.37,0.006,0.531l-2.989,0.549c-0.877,0.161-1.737-0.189-1.912-0.779"/>
<path fill="#020303" d="m286.959,19.439c-0.277-0.244-0.533-1.172-0.564-2.063l-0.006-0.169c-0.03-0.89,0.128-0.913,0.357-0.051l0.304,1.157c0.227,0.862,0.186,1.37-0.091,1.126"/>
<path fill="#020303" d="m246.82,40.584-2.281-0.914c-0.829-0.331-0.782-0.534,0.107-0.451l2.423,0.227"/>
<path fill="#020303" d="m160.16,47.902c0.171-0.485,0.171-1.251,0-1.704-0.172-0.451-1.044-0.818-1.935-0.818h-0.927c-0.892,0-1.876,0.425-2.189,0.947-0.313,0.521,0.134,1.148,0.992,1.391l2.187,0.624c0.859,0.244,1.7,0.045,1.872-0.44"/>
<path fill="#020303" d="m158.645,46.64c-0.593-0.623-0.563-1.136,0.064-1.136,0.625,0,1.392,0.314,1.704,0.696,0.311,0.382,0.18,1.314-0.293,2.07l-0.175,0.281c-0.475,0.754-0.717,0.891-0.545,0.3,0.177-0.593-0.165-1.585-0.755-2.211"/>
<path fill="#020303" d="m101.524,18.239c0.07-0.486,0.833-0.707,1.697-0.49l0.389,0.097c0.866,0.218,0.862,0.56-0.006,0.763l-0.627,0.146c-0.868,0.204-1.523-0.028-1.453-0.516"/>
<path fill="#020303" d="m60.688,25.118c-0.175,0.313-1.023,0.397-1.891,0.188l-0.509-0.123c-0.865-0.208-0.849-0.422,0.044-0.476l1.051-0.062c0.89-0.052,1.479,0.16,1.305,0.473"/>
<path fill="#020303" d="m27.804,39.067c0.141-0.418-0.464-0.619-1.338-0.448l-1.358,0.264c-0.875,0.171-0.871,0.424,0.009,0.561l0.832,0.131c0.88,0.138,1.716-0.09,1.855-0.508"/>
<path fill="#282729" d="m30.329,52.386c-0.277-0.311-0.3-1.269-0.047-2.123l0.348-1.183c0.251-0.856,0.421-0.827,0.38,0.064l-0.102,2.189c-0.041,0.893-0.301,1.363-0.579,1.053"/>
<path fill="#282729" d="m61.888,56.55c-0.278-0.174-0.278-0.939,0-1.704,0.278-0.764,0.505-0.658,0.505,0.234v0.164c0,0.892-0.227,1.48-0.505,1.306"/>
<path fill="#282729" d="m90.354,37.554c-0.034-0.556,0.203-0.333,0.53,0.499l0.2,0.516c0.328,0.83,0.31,1.168-0.037,0.752-0.347-0.417-0.659-1.212-0.693-1.767"/>
<path fill="#282729" d="m248.525,52.638c0.31-0.244,0.366-1.144,0.121-2.001l-0.374-1.302c-0.244-0.857-0.427-0.829-0.404,0.062l0.052,2.062c0.018,0.891,0.293,1.422,0.605,1.179"/>
<path fill="#282729" d="m290.181,52.384c0.451-0.244,0.516-1.105,0.141-1.913l-1.673-3.62c-0.372-0.812-0.544-0.758-0.381,0.121l0.796,4.26c0.163,0.878,0.666,1.396,1.117,1.152"/>
<path fill="#282729" d="m291.947,36.922c-0.174-0.347-0.638,0.024-1.032,0.823l-1.725,3.528c-0.394,0.801-0.284,0.867,0.243,0.149l1.873-2.561c0.527-0.719,0.816-1.59,0.641-1.939"/>
<path fill="#020303" d="m264.868,19.628,0.07-2.038c0.03-0.892,0.239-0.915,0.463-0.053l0.603,2.343"/>
<path fill="#595558" d="m24.335,53.268c-0.798-0.243-0.741-0.385,0.126-0.314,0.867,0.068,2.146,0.211,2.839,0.315s0.637,0.247-0.126,0.314c-0.764,0.07-2.041-0.072-2.839-0.315"/>
<path fill="#595558" d="m64.296,48.798c-0.629-0.63-0.721-0.553-0.204,0.172l0.64,0.896c0.518,0.725,1.341,1.574,1.828,1.887,0.486,0.313,0.458,0.058-0.062-0.568-0.522-0.625-1.465-1.652-2.095-2.282l-0.107-0.105z"/>
<path fill="#595558" d="m80.57,47.021c-0.21,0-0.095,0.595,0.252,1.326,0.347,0.729,0.517,0.729,0.379,0-0.139-0.732-0.423-1.326-0.631-1.326"/>
<path fill="#595558" d="m103.801,55.1c-0.695-0.07-0.544-0.256,0.333-0.418l0.969-0.175c0.877-0.16,1.227-0.062,0.776,0.216-0.448,0.277-1.385,0.446-2.078,0.377"/>
<path fill="#595558" d="m120.018,48.346c-0.313-0.451-0.427-0.168-0.254,0.63,0.174,0.798,0.629,2.021,1.011,2.714,0.379,0.696,0.528,0.552,0.326-0.315l-0.146-0.628c-0.204-0.87-0.624-1.951-0.937-2.401"/>
<path fill="#595558" d="m173.669,49.733c-0.105-0.521-0.363-0.436-0.569,0.188-0.208,0.625-0.379,1.817-0.379,2.653,0,0.832,0.232,0.822,0.514-0.023l0.111-0.333c0.281-0.845,0.426-1.964,0.323-2.485"/>
<path fill="#595558" d="m155.792,46.257c-0.176-0.532-0.579-0.441-0.896,0.201-0.316,0.643,0.083,1.487,0.883,1.877l0.04,0.017c0.798,0.389,1.195,0.295,0.875-0.211-0.317-0.503-0.726-1.351-0.902-1.884"/>
<path fill="#595558" d="m185.784,55.351c-0.797-0.207-0.721-0.378,0.171-0.378h0.293c0.89,0,2.273,0.227,3.073,0.505,0.797,0.278,0.725,0.454-0.167,0.389l-0.298-0.021c-0.889-0.064-2.271-0.286-3.072-0.495"/>
<path fill="#595558" d="m206.046,48.346c-0.067-0.313-0.324-0.028-0.568,0.63-0.246,0.659-0.188,0.916,0.126,0.569,0.312-0.348,0.512-0.889,0.442-1.199"/>
<path fill="#595558" d="m225.536,47.657c-0.07-0.31-0.326-0.028-0.568,0.632-0.244,0.659-0.186,0.917,0.127,0.568,0.311-0.348,0.511-0.887,0.441-1.2"/>
<path fill="#595558" d="m222.407,53.512c-0.876-0.168-0.865-0.377,0.021-0.464l0.686-0.066c0.887-0.085,1.983,0.071,2.436,0.35,0.451,0.278,0.309,0.505-0.316,0.505s-1.852-0.137-2.729-0.306l-0.098-0.019z"/>
<path fill="#595558" d="m251.051,53.459c-0.799,0.069-0.799-0.073,0-0.316,0.797-0.244,2.179-0.381,3.066-0.305l1.187,0.104c0.887,0.075,0.886,0.18-0.004,0.231l-1.181,0.067c-0.89,0.052-2.272,0.15-3.068,0.219"/>
<path fill="#282729" d="m269.538,33.072c-0.416,0.174-1.036,0.989-1.378,1.813l-0.017,0.034c-0.342,0.824-0.183,0.917,0.354,0.206l0.817-1.077c0.541-0.712,0.643-1.151,0.224-0.976"/>
<path fill="#020303" d="m300.912,19.25c-0.383,0-0.766-0.726-0.853-1.614l-0.066-0.685c-0.086-0.889,0.146-0.95,0.513-0.137l0.435,0.959c0.365,0.812,0.353,1.477-0.029,1.477"/>
<path fill="#020303" d="m181.621,22.846c-0.034-0.451,0.667-0.795,1.558-0.765l0.542,0.017c0.891,0.031,0.947,0.333,0.124,0.674l-0.665,0.272c-0.823,0.342-1.526,0.252-1.559-0.198"/>
<path fill="#020303" d="m137.249,24.487c-0.35-0.174-0.541,0.407-0.425,1.291l0.089,0.701c0.116,0.884,0.372,0.897,0.575,0.028l0.026-0.123c0.203-0.869,0.082-1.722-0.265-1.897"/>
<path fill="#020303" d="m97.545,36.796c-0.104-0.346,0.541-0.63,1.432-0.63h3.45c0.891,0,0.905,0.143,0.031,0.317l-3.133,0.625c-0.873,0.175-1.677,0.035-1.78-0.312"/>
<path fill="#020303" d="m27.079,43.737c0.053-0.26-0.634-0.475-1.527-0.475h-0.828c-0.894,0-0.914,0.174-0.048,0.386l0.733,0.178c0.865,0.214,1.616,0.171,1.67-0.089"/>
<path fill="#e1dcd7" d="m14.528,46.624c-0.892,0.011-1.479,0.16-1.303,0.333,0.175,0.175,1.047,0.317,1.938,0.317h6.606c0.889,0,1.762-0.17,1.936-0.379s-0.416-0.37-1.307-0.361l-7.87,0.09z"/>
<path fill="#e1dcd7" d="m44.449,46.624c-0.894,0.011-1.482,0.16-1.306,0.333,0.173,0.175,1.043,0.317,1.934,0.317h6.606c0.891,0,1.763-0.17,1.938-0.379,0.174-0.209-0.416-0.37-1.306-0.361l-7.866,0.09z"/>
<path fill="#e1dcd7" d="m61.27,46.493c-0.891,0.028-1.573,0.196-1.516,0.37,0.059,0.174,0.837,0.316,1.728,0.316h0.114c0.892,0,1.67-0.171,1.731-0.379,0.058-0.21-0.622-0.355-1.514-0.327l-0.543,0.02z"/>
<path fill="#e1dcd7" d="m31.256,31.818c-0.891,0.03-1.572,0.197-1.513,0.37,0.062,0.174,0.839,0.317,1.73,0.317h0.112c0.891,0,1.668-0.171,1.73-0.379,0.059-0.21-0.622-0.356-1.513-0.327l-0.546,0.019z"/>
<path fill="#e1dcd7" d="m43.658,31.818c-0.89,0.03-1.57,0.197-1.512,0.37,0.062,0.174,0.838,0.317,1.728,0.317h0.113c0.892,0,1.669-0.171,1.729-0.379,0.06-0.21-0.622-0.356-1.514-0.327l-0.544,0.019z"/>
<path fill="#e1dcd7" d="m18.851,33.8c-0.89,0.032-1.574,0.2-1.521,0.376,0.051,0.173,0.777,0.315,1.607,0.315s1.553-0.171,1.606-0.378c0.054-0.208-0.631-0.352-1.521-0.319l-0.171,0.006z"/>
<path fill="#e1dcd7" d="m33.718,38.848c-0.893,0.017-1.531,0.171-1.422,0.346,0.112,0.174,0.931,0.314,1.822,0.314h2.964c0.893,0,1.712-0.169,1.821-0.376,0.111-0.208-0.529-0.365-1.42-0.349l-3.765,0.065z"/>
<path fill="#e1dcd7" d="m26.901,17.264c-0.893,0.016-1.531,0.171-1.42,0.344,0.11,0.173,0.929,0.315,1.819,0.315h2.968c0.893,0,1.712-0.17,1.821-0.378,0.108-0.209-0.532-0.367-1.423-0.351l-3.765,0.07z"/>
<path fill="#e1dcd7" d="m78.498,46.493c-0.89,0.028-1.572,0.196-1.512,0.37,0.061,0.174,0.837,0.316,1.728,0.316h0.111c0.891,0,1.671-0.171,1.731-0.379,0.06-0.21-0.621-0.355-1.515-0.327l-0.543,0.02z"/>
<path fill="#e1dcd7" d="m107.94,46.488c-0.891,0.031-1.577,0.2-1.522,0.375,0.053,0.174,0.777,0.317,1.607,0.317,0.833,0,1.554-0.171,1.607-0.381,0.053-0.208-0.635-0.35-1.522-0.319l-0.17,0.008z"/>
<path fill="#e1dcd7" d="m83.99,46.515c-0.891,0.02-1.544,0.175-1.447,0.349,0.095,0.174,0.903,0.314,1.794,0.314h2.216c0.892,0,1.699-0.171,1.795-0.378,0.095-0.208-0.556-0.366-1.448-0.346l-2.91,0.061z"/>
<path fill="#e1dcd7" d="m99.611,46.517c-0.893,0.017-1.533,0.172-1.426,0.347,0.108,0.174,0.925,0.315,1.816,0.315h2.793c0.892,0,1.709-0.171,1.818-0.379,0.106-0.208-0.536-0.367-1.427-0.348l-3.574,0.065z"/>
<path fill="#e1dcd7" d="m116.844,46.507c-0.891,0.023-1.557,0.183-1.481,0.357,0.079,0.174,0.872,0.314,1.763,0.314h1.207c0.891,0,1.685-0.171,1.765-0.379,0.079-0.208-0.586-0.361-1.479-0.338l-1.775,0.046z"/>
<path fill="#e1dcd7" d="m151.018,46.507c-0.891,0.023-1.557,0.183-1.477,0.357s0.874,0.314,1.766,0.314h1.202c0.89,0,1.686-0.171,1.766-0.379s-0.585-0.361-1.476-0.338l-1.781,0.046z"/>
<path fill="#e1dcd7" d="m175.349,46.501c-0.891,0.025-1.564,0.188-1.495,0.362,0.072,0.174,0.856,0.316,1.751,0.316h0.7c0.891,0,1.679-0.171,1.749-0.379,0.072-0.209-0.6-0.359-1.492-0.333l-1.213,0.034z"/>
<path fill="#e1dcd7" d="m187.471,46.526c-0.891,0.012-1.5,0.163-1.351,0.337,0.15,0.174,1.002,0.314,1.893,0.314h5.295c0.891,0,1.743-0.171,1.894-0.379,0.152-0.208-0.455-0.37-1.347-0.358l-6.384,0.086z"/>
<path fill="#e1dcd7" d="m202.428,46.496c-0.891,0.028-1.57,0.194-1.507,0.369,0.063,0.172,0.843,0.315,1.731,0.315h0.254c0.892,0,1.671-0.171,1.733-0.379,0.064-0.209-0.615-0.356-1.508-0.329l-0.703,0.024z"/>
<path fill="#e1dcd7" d="m207.827,46.515c-0.895,0.02-1.543,0.175-1.447,0.349s0.906,0.314,1.797,0.314h2.271c0.891,0,1.701-0.171,1.799-0.378,0.094-0.208-0.555-0.366-1.447-0.346l-2.973,0.061z"/>
<path fill="#e1dcd7" d="m219.754,46.509c-0.893,0.021-1.554,0.18-1.471,0.354s0.881,0.316,1.773,0.316h1.425c0.891,0,1.691-0.171,1.772-0.379,0.082-0.208-0.579-0.363-1.471-0.341l-2.028,0.05z"/>
<path fill="#e1dcd7" d="m226.854,46.501c-0.891,0.027-1.565,0.19-1.499,0.364,0.068,0.173,0.854,0.315,1.747,0.315h0.59c0.892,0,1.677-0.171,1.742-0.379,0.068-0.209-0.606-0.358-1.497-0.332l-1.083,0.032z"/>
<path fill="#e1dcd7" d="m236.893,46.53c-0.892,0.009-1.472,0.159-1.286,0.333,0.185,0.174,1.066,0.316,1.957,0.316h7.306c0.892,0,1.774-0.171,1.959-0.38,0.185-0.208-0.392-0.371-1.282-0.361l-8.654,0.092z"/>
<path fill="#e1dcd7" d="m253.931,46.53c-0.892,0.009-1.471,0.159-1.285,0.333,0.184,0.174,1.066,0.316,1.959,0.316h7.305c0.892,0,1.774-0.171,1.961-0.38,0.188-0.208-0.391-0.371-1.281-0.361l-8.659,0.092z"/>
<path fill="#e1dcd7" d="m297.009,46.53c-0.891,0.009-1.468,0.159-1.28,0.333,0.184,0.174,1.066,0.316,1.959,0.316h7.297c0.893,0,1.776-0.171,1.962-0.38,0.185-0.208-0.392-0.371-1.282-0.361l-8.656,0.092z"/>
<path fill="#e1dcd7" d="m281.197,17.828c-0.891,0.018-1.536,0.172-1.431,0.347,0.104,0.174,0.921,0.315,1.812,0.315h2.686c0.892,0,1.708-0.17,1.813-0.379,0.104-0.208-0.54-0.366-1.432-0.348l-3.448,0.065z"/>
<path fill="#e1dcd7" d="m267.752,17.833c-0.89,0.015-1.521,0.167-1.402,0.342,0.122,0.174,0.949,0.315,1.842,0.315h3.522c0.894,0,1.72-0.17,1.841-0.378,0.118-0.209-0.512-0.367-1.405-0.353l-4.398,0.074z"/>
<path fill="#e1dcd7" d="m260.933,17.82c-0.891,0.021-1.552,0.181-1.467,0.354,0.082,0.174,0.878,0.316,1.773,0.316h1.515c0.892,0,1.689-0.17,1.774-0.379s-0.574-0.362-1.468-0.34l-2.127,0.049z"/>
<path fill="#e1dcd7" d="m263.211,31.749c-0.893,0.016-1.533,0.171-1.425,0.345,0.106,0.174,0.925,0.314,1.815,0.314h2.855c0.89,0,1.707-0.169,1.817-0.376,0.109-0.209-0.534-0.366-1.426-0.35l-3.636,0.067z"/>
<path fill="#e1dcd7" d="m221.648,16.877c-0.892,0.021-1.554,0.18-1.469,0.354,0.083,0.172,0.88,0.314,1.773,0.314h1.512c0.892,0,1.689-0.17,1.774-0.378,0.082-0.208-0.579-0.362-1.471-0.339l-2.119,0.049z"/>
<path fill="#e1dcd7" d="m231.302,16.877c-0.893,0.021-1.553,0.18-1.468,0.354,0.081,0.172,0.882,0.314,1.773,0.314h1.517c0.891,0,1.688-0.17,1.773-0.378,0.081-0.208-0.578-0.362-1.472-0.339l-2.123,0.049z"/>
<path fill="#e1dcd7" d="m225.12,23.005c-0.72,0.032-1.275,0.204-1.232,0.378,0.042,0.175,0.599,0.318,1.236,0.318s1.193-0.171,1.232-0.379c0.04-0.207-0.517-0.35-1.236-0.317"/>
<path fill="#e1dcd7" d="m228.559,21.017c-0.891,0.034-1.577,0.205-1.528,0.379,0.051,0.174,0.748,0.317,1.549,0.317s1.496-0.171,1.546-0.38c0.05-0.21-0.639-0.352-1.53-0.317l-0.037,0.001z"/>
<path fill="#e1dcd7" d="m185.575,21.396c-0.891,0.033-1.579,0.203-1.529,0.378,0.049,0.174,0.747,0.317,1.548,0.317s1.498-0.171,1.553-0.379c0.053-0.209-0.636-0.352-1.524-0.319l-0.048,0.003z"/>
<path fill="#e1dcd7" d="m196.368,31.441c-0.894,0.028-1.573,0.193-1.507,0.368,0.063,0.173,0.844,0.316,1.735,0.316h0.279c0.892,0,1.673-0.169,1.734-0.377,0.063-0.21-0.615-0.357-1.507-0.331l-0.734,0.024z"/>
<path fill="#e1dcd7" d="m188.794,35.059c-0.891,0.02-1.543,0.175-1.446,0.348,0.097,0.174,0.904,0.315,1.798,0.315h2.211c0.891,0,1.7-0.171,1.795-0.379,0.096-0.21-0.555-0.365-1.445-0.345l-2.913,0.061z"/>
<path fill="#e1dcd7" d="m295.965,35.816c-0.891,0.02-1.541,0.175-1.445,0.349,0.097,0.173,0.908,0.315,1.798,0.315h2.209c0.893,0,1.701-0.171,1.798-0.38,0.097-0.208-0.554-0.362-1.443-0.344l-2.917,0.06z"/>
<path fill="#e1dcd7" d="m117.698,38.646c-0.891,0.024-1.563,0.187-1.492,0.36,0.073,0.172,0.861,0.314,1.752,0.314h0.868c0.891,0,1.682-0.17,1.755-0.378s-0.595-0.358-1.488-0.334l-1.395,0.038z"/>
<path fill="#e1dcd7" d="m102.546,35.615c-0.891,0.024-1.561,0.187-1.489,0.36s0.859,0.314,1.75,0.314h0.87c0.893,0,1.683-0.17,1.756-0.377,0.073-0.209-0.597-0.359-1.489-0.335l-1.398,0.038z"/>
<path fill="#e1dcd7" d="m80.957,35.33c-0.892,0.025-1.561,0.188-1.488,0.362,0.075,0.174,0.865,0.316,1.756,0.316h0.868c0.891,0,1.681-0.171,1.754-0.381,0.074-0.208-0.597-0.359-1.489-0.335l-1.401,0.038z"/>
<path fill="#e1dcd7" d="m48.3,23.783c-0.891,0.016-1.541,0.168-1.443,0.342,0.1,0.175,0.909,0.32,1.802,0.324l2.378,0.008c0.891,0.004,1.704-0.165,1.802-0.373,0.1-0.209-0.546-0.367-1.439-0.352l-3.1,0.051z"/>
<path fill="#e1dcd7" d="m109.599,18.294c-0.886-0.097-1.574-0.028-1.525,0.155,0.048,0.183,0.811,0.43,1.694,0.549l0.863,0.117c0.884,0.121,1.689,0.058,1.788-0.137,0.099-0.196-0.543-0.436-1.431-0.533l-1.389-0.151z"/>
<path fill="#e1dcd7" d="m202.522,37.413c-0.892,0.024-1.563,0.186-1.489,0.36,0.072,0.173,0.862,0.314,1.752,0.314h0.869c0.891,0,1.68-0.17,1.753-0.378,0.071-0.208-0.597-0.358-1.491-0.334l-1.394,0.038z"/>
<path fill="#e1dcd7" d="m229.789,34.764c-0.891,0.024-1.561,0.186-1.488,0.36,0.073,0.172,0.862,0.314,1.753,0.314h0.87c0.891,0,1.679-0.171,1.752-0.379,0.071-0.21-0.596-0.358-1.488-0.334l-1.399,0.039z"/>
<path fill="#e1dcd7" d="m164.269,17.56c-0.89,0.009-1.435,0.158-1.207,0.333,0.228,0.173,1.143,0.315,2.034,0.315h9.6c0.891,0,1.805-0.169,2.034-0.38,0.224-0.208-0.318-0.373-1.211-0.364l-11.25,0.096z"/>
<path fill="#e1dcd7" d="m131.8,17.658c-0.89,0.007-1.43,0.156-1.194,0.329,0.235,0.174,1.158,0.315,2.048,0.315h10.012c0.891,0,1.811-0.169,2.047-0.379,0.235-0.208-0.305-0.372-1.196-0.364l-11.717,0.099z"/>
<path fill="#e1dcd7" d="m130.098,31.467c-0.892,0.013-1.518,0.167-1.391,0.341,0.126,0.175,0.96,0.318,1.852,0.318h3.976c0.89,0,1.724-0.17,1.85-0.378s-0.5-0.367-1.391-0.354l-4.896,0.073z"/>
<path fill="#e1dcd7" d="m138.804,31.466c-0.891,0.013-1.523,0.168-1.402,0.342,0.121,0.175,0.948,0.318,1.84,0.318h3.554c0.889,0,1.718-0.169,1.839-0.377,0.121-0.21-0.511-0.369-1.402-0.353l-4.429,0.07z"/>
<path fill="#e1dcd7" d="m157.459,44.692c-0.892,0.03-1.573,0.199-1.516,0.371,0.057,0.173,0.833,0.316,1.725,0.316h0.027c0.891,0,1.668-0.17,1.728-0.379s-0.621-0.354-1.513-0.324l-0.451,0.016z"/>
<path fill="#e1dcd7" d="m154.896,22.499c-0.886-0.102-1.561-0.033-1.5,0.149,0.062,0.187,0.834,0.436,1.717,0.558l1.629,0.227c0.884,0.12,1.699,0.061,1.813-0.134s-0.516-0.438-1.403-0.541l-2.256-0.259z"/>
<path fill="#e1dcd7" d="m236.311,37.46c-0.886-0.102-1.56-0.036-1.496,0.146,0.058,0.184,0.837,0.434,1.72,0.557l1.623,0.225c0.884,0.121,1.698,0.063,1.813-0.132,0.114-0.194-0.517-0.436-1.402-0.538l-2.258-0.258z"/>
<path fill="#e1dcd7" d="m233.362,23.005c-0.667,0.032-1.184,0.204-1.146,0.378,0.037,0.175,0.552,0.318,1.143,0.318,0.594,0,1.108-0.171,1.147-0.379,0.039-0.207-0.476-0.35-1.144-0.317"/>
<path fill="#e1dcd7" d="m271.825,31.751c-0.891,0.016-1.524,0.168-1.405,0.342,0.121,0.174,0.947,0.316,1.839,0.316h3.527c0.89,0,1.721-0.17,1.839-0.378,0.116-0.208-0.515-0.365-1.408-0.352l-4.392,0.072z"/>
<path fill="#e1dcd7" d="m303.064,17.822c-0.891,0.02-1.551,0.179-1.464,0.353s0.887,0.315,1.778,0.315h1.622c0.894,0,1.694-0.169,1.778-0.379,0.089-0.208-0.57-0.361-1.463-0.341l-2.251,0.052z"/>
<path fill="#e1dcd7" d="m162.949,46.528c-0.891,0.011-1.487,0.162-1.325,0.336,0.166,0.173,1.029,0.314,1.92,0.314h6.074c0.891,0,1.755-0.17,1.92-0.378,0.164-0.208-0.431-0.37-1.322-0.358l-7.267,0.086z"/>
<path fill="#e1dcd7" d="m123.186,46.533c-0.891,0.008-1.444,0.156-1.229,0.33,0.216,0.174,1.12,0.316,2.013,0.316h9.008c0.892,0,1.799-0.171,2.015-0.381,0.216-0.208-0.338-0.372-1.229-0.363l-10.578,0.098z"/>
<path fill="#e1dcd7" d="m137.956,46.52c-0.89,0.016-1.523,0.17-1.405,0.344,0.119,0.173,0.945,0.314,1.836,0.314h3.469c0.891,0,1.716-0.171,1.837-0.379,0.116-0.208-0.517-0.366-1.408-0.352l-4.329,0.073z"/>
<path fill="#e1dcd7" d="m67.679,46.604c-0.891,0.021-1.556,0.18-1.472,0.354,0.082,0.175,0.877,0.316,1.77,0.316h1.458c0.891,0,1.688-0.17,1.77-0.379,0.084-0.209-0.577-0.361-1.468-0.34l-2.058,0.049z"/>
</svg>