<?xml version="1.0" encoding="UTF-8" standalone="no"?>
<!-- Created with Inkscape (http://www.inkscape.org/) -->

<svg
   width="65.393394mm"
   height="31.75106mm"
   viewBox="0 0 65.393394 31.75106"
   version="1.1"
   id="svg893"
   xmlns:inkscape="http://www.inkscape.org/namespaces/inkscape"
   xmlns:sodipodi="http://sodipodi.sourceforge.net/DTD/sodipodi-0.dtd"
   xmlns="http://www.w3.org/2000/svg"
   xmlns:svg="http://www.w3.org/2000/svg">
  <sodipodi:namedview
     id="namedview895"
     pagecolor="#ffffff"
     bordercolor="#666666"
     borderopacity="1.0"
     inkscape:showpageshadow="2"
     inkscape:pageopacity="0.0"
     inkscape:pagecheckerboard="0"
     inkscape:deskcolor="#d1d1d1"
     inkscape:document-units="mm"
     showgrid="false" />
  <defs
     id="defs890">
    <clipPath
       clipPathUnits="userSpaceOnUse"
       id="clipPath56">
      <path
         d="m 1274.53,4081.53 c 0,-34.13 -27.66,-61.79 -61.78,-61.79 -34.12,0 -61.79,27.66 -61.79,61.79 0,34.12 27.67,61.79 61.79,61.79 34.12,0 61.78,-27.67 61.78,-61.79 z"
         id="path54" />
    </clipPath>
    <clipPath
       clipPathUnits="userSpaceOnUse"
       id="clipPath72">
      <path
         d="m 1590.13,4081.53 c 0,-34.13 -27.67,-61.79 -61.79,-61.79 -34.13,0 -61.79,27.66 -61.79,61.79 0,34.12 27.66,61.79 61.79,61.79 34.12,0 61.79,-27.67 61.79,-61.79 z"
         id="path70" />
    </clipPath>
  </defs>
  <g
     inkscape:label="Capa 1"
     inkscape:groupmode="layer"
     id="layer1"
     transform="translate(-29.606042,-91.738004)">
    <path
       d="m 88.458587,107.1404 c -0.03387,0 -0.06738,0.002 -0.101248,0.002 -0.540808,-3.0674 -3.216628,-5.39821 -6.439253,-5.39821 -0.551392,0 -1.086555,0.0688 -1.598083,0.19756 -1.632303,-3.75391 -5.369631,-6.38034 -9.722556,-6.385985 -1.946981,-2.332567 -4.87539,-3.817761 -8.151284,-3.817761 -4.842228,0 -8.923867,3.243792 -10.198806,7.676092 -0.440973,-0.05609 -0.889706,-0.08784 -1.346201,-0.08784 -4.719778,0 -8.718021,3.081864 -10.097594,7.342014 -0.516325,-0.31609 -1.12335,-0.49883 -1.773096,-0.49883 -1.876884,0 -3.398379,1.52153 -3.398379,3.39831 0,0.2286 0.02314,0.45191 0.06614,0.66781 -0.497769,-0.19015 -1.03766,-0.29528 -1.602246,-0.29528 -2.479499,0 -4.489521,2.00978 -4.489521,4.4891 0,2.47932 2.010022,4.48945 4.489521,4.48945 0.793997,0 1.539523,-0.20708 2.186799,-0.56868 0.914894,2.5079 3.321333,4.2986 6.14606,4.2986 2.134023,0 4.028828,-1.02235 5.222628,-2.6035 1.024432,0.32914 2.11582,0.5087 3.249683,0.5087 0.906287,0 1.785409,-0.1143 2.62502,-0.32773 1.883481,1.70604 4.381853,2.74567 7.123289,2.74567 3.21557,0 6.095295,-1.43228 8.041923,-3.69111 1.606903,2.52871 4.431242,4.20828 7.649281,4.20828 3.443817,0 6.438548,-1.92158 7.971015,-4.75085 1.128889,0.92639 2.572808,1.48272 4.146903,1.48272 3.612444,0 6.540853,-2.92841 6.540853,-6.5405 0,-3.61209 -2.928409,-6.5405 -6.540853,-6.5405"
       style="fill:#a6e2f9;fill-opacity:1;fill-rule:nonzero;stroke:none;stroke-width:0.0352778"
       id="path16" />
    <path
       d="m 93.567867,109.59679 c -0.614538,3.23709 -3.458633,5.68678 -6.875639,5.68678 -0.744361,0 -2.3368,-0.27305 -2.438047,-0.24589 -1.200503,2.12831 -3.481212,3.56729 -6.098117,3.56729 -3.477331,0 -6.359878,-2.53541 -6.904215,-5.85823 -1.987902,2.46098 -5.0292,4.03719 -8.440561,4.03719 -3.574345,0 -6.742995,-1.72896 -8.719256,-4.39737 -0.733425,1.44639 -2.233789,2.43981 -3.966034,2.43981 -2.082201,0 -3.828733,-1.43228 -4.311721,-3.36444 -0.741821,2.79682 -3.289935,4.85916 -6.321214,4.85916 -1.410688,0 -2.716812,-0.44873 -3.78587,-1.20897 -1.067435,0.76024 -2.373842,1.20897 -3.785764,1.20897 -0.710248,0 -1.393332,-0.11289 -2.032318,-0.32315 -0.18288,-0.48859 -0.283069,-1.016 -0.283069,-1.56739 0,-2.47967 2.010975,-4.49051 4.490615,-4.49051 0.564444,0 1.103277,0.10549 1.602105,0.29563 -0.04286,-0.21554 -0.0671,-0.4385 -0.0671,-0.66745 0,-1.87643 1.521919,-3.39831 3.398379,-3.39831 0.65017,0 1.257583,0.18274 1.77352,0.49883 1.37915,-4.2605 5.377957,-7.341663 10.096889,-7.341663 0.457553,0 0.906286,0.0314 1.346553,0.08714 1.274586,-4.431594 5.356225,-7.676092 10.199512,-7.676092 3.275894,0 6.204303,1.484842 8.150578,3.81882 4.353278,0.0042 8.090606,2.631017 9.722556,6.385625 0.511881,-0.12876 1.04775,-0.19755 1.597731,-0.19755 3.222978,0 5.899503,2.33115 6.439958,5.3982 0.03422,0 0.06703,-0.003 0.101248,-0.003 2.068336,0 3.911953,0.9592 5.10928,2.45674"
       style="fill:#ecf9fe;fill-opacity:1;fill-rule:nonzero;stroke:none;stroke-width:0.0352778"
       id="path18" />
    <path
       d="m 42.738619,108.55363 c -0.482988,-1.13454 -1.935057,-1.88489 -1.935057,-1.88489 0.598911,-1.84821 1.689206,-3.47592 3.119897,-4.72335 -2.046676,3.25685 -1.233347,6.42691 -1.18484,6.60824"
       style="fill:#a6e2f9;fill-opacity:1;fill-rule:nonzero;stroke:none;stroke-width:0.0352778"
       id="path20" />
    <path
       d="m 55.429412,101.15306 c -1.367719,-1.682755 -3.183467,-1.738141 -3.183467,-1.738141 0.599723,-2.085975 1.823862,-3.909484 3.453695,-5.254625 -2.850092,3.660069 -0.433917,6.763456 -0.270228,6.992766"
       style="fill:#a6e2f9;fill-opacity:1;fill-rule:nonzero;stroke:none;stroke-width:0.0352778"
       id="path22" />
    <path
       d="m 47.652143,120.04572 c -0.475826,0.63006 -1.064789,1.17016 -1.73355,1.59491 -1.857869,-1.81646 -1.597836,-4.09328 -1.597836,-4.09328 1.224774,1.77341 3.331386,2.49837 3.331386,2.49837"
       style="fill:#81cdf2;fill-opacity:1;fill-rule:nonzero;stroke:none;stroke-width:0.0352778"
       id="path24" />
    <path
       d="m 57.333354,117.54735 c -0.08714,1.44074 -0.780344,2.92417 -1.895122,4.06011 -0.688975,-0.38876 -1.329267,-0.85301 -1.912409,-1.38041 1.516592,0.14428 3.807531,-2.6797 3.807531,-2.6797"
       style="fill:#81cdf2;fill-opacity:1;fill-rule:nonzero;stroke:none;stroke-width:0.0352778"
       id="path26" />
    <path
       d="m 72.270672,122.52363 c -1.466145,-0.73731 -2.703689,-1.86373 -3.579989,-3.24273 l 1.737783,-2.53683 c 0,0 -0.836083,3.40713 1.842206,5.77956"
       style="fill:#81cdf2;fill-opacity:1;fill-rule:nonzero;stroke:none;stroke-width:0.0352778"
       id="path28" />
    <path
       d="m 87.393903,120.13532 c -1.157464,-0.18979 -2.21368,-0.68297 -3.082572,-1.39735 0.42545,-0.68827 0.504119,-1.67569 0.443794,-2.44722 0,0 3.400778,0.70485 2.638778,3.84457"
       style="fill:#81cdf2;fill-opacity:1;fill-rule:nonzero;stroke:none;stroke-width:0.0352778"
       id="path30" />
    <path
       d="m 32.438178,112.9256 c 0.394123,-0.39405 0.503978,-0.92322 0.245321,-1.18216 -0.258798,-0.25858 -0.788105,-0.14851 -1.182229,0.24554 -0.394264,0.39405 -0.504225,0.92357 -0.245427,1.18216 0.258656,0.25894 0.788105,0.14887 1.182335,-0.24554"
       style="fill:#ffffff;fill-opacity:1;fill-rule:nonzero;stroke:none;stroke-width:0.0352778"
       id="path32" />
    <path
       d="m 52.23254,101.40741 c -0.147814,-0.88159 -1.457325,-1.39665 -2.924528,-1.15076 -1.467767,0.24553 -2.537531,1.15958 -2.389929,2.04082 0.147567,0.88159 1.457114,1.39664 2.924599,1.15076 1.467344,-0.24589 2.537319,-1.15958 2.389858,-2.04082"
       style="fill:#ffffff;fill-opacity:1;fill-rule:nonzero;stroke:none;stroke-width:0.0352778"
       id="path34" />
    <path
       d="m 65.719588,95.420416 c 0,1.374775 -1.85032,2.488847 -4.132439,2.488847 -2.28212,0 -4.132439,-1.114072 -4.132439,-2.488847 0,-1.374422 1.850319,-2.488495 4.132439,-2.488495 2.282119,0 4.132439,1.114073 4.132439,2.488495"
       style="fill:#ffffff;fill-opacity:1;fill-rule:nonzero;stroke:none;stroke-width:0.0352778"
       id="path36" />
    <path
       d="m 75.559972,100.04392 c -0.371828,0.72496 -1.624895,0.8255 -2.798586,0.22366 -1.173692,-0.601836 -1.823862,-1.677456 -1.452034,-2.402414 0.371828,-0.725311 1.624542,-0.8255 2.798586,-0.224014 1.173692,0.601839 1.823509,1.677459 1.452034,2.402768"
       style="fill:#ffffff;fill-opacity:1;fill-rule:nonzero;stroke:none;stroke-width:0.0352778"
       id="path38" />
    <path
       d="m 85.056045,105.24951 c 0,1.05833 -0.966611,1.91664 -2.159353,1.91664 -1.192389,0 -2.159,-0.85831 -2.159,-1.91664 0,-1.05869 0.966611,-1.91664 2.159,-1.91664 1.192742,0 2.159353,0.85795 2.159353,1.91664"
       style="fill:#ffffff;fill-opacity:1;fill-rule:nonzero;stroke:none;stroke-width:0.0352778"
       id="path40" />
    <path
       d="m 39.325494,109.42146 c 0,0.83079 -0.524334,1.50425 -1.171187,1.50425 -0.646854,0 -1.171187,-0.67346 -1.171187,-1.50425 0,-0.83079 0.524333,-1.50424 1.171187,-1.50424 0.646853,0 1.171187,0.67345 1.171187,1.50424"
       style="fill:#ffffff;fill-opacity:1;fill-rule:nonzero;stroke:none;stroke-width:0.0352778"
       id="path42" />
    <path
       d="m 62.222502,106.09265 c 0,0 1.693333,2.01119 3.386666,0"
       style="fill:none;stroke:#17203f;stroke-width:1.05833;stroke-linecap:round;stroke-linejoin:round;stroke-miterlimit:10;stroke-dasharray:none;stroke-opacity:1"
       id="path44" />
    <path
       d="m 60.335846,105.7374 c 0,1.20403 -0.975783,2.17982 -2.179461,2.17982 -1.203678,0 -2.179814,-0.97579 -2.179814,-2.17982 0,-1.20368 0.976136,-2.17981 2.179814,-2.17981 1.203678,0 2.179461,0.97613 2.179461,2.17981"
       style="fill:#51a9e0;fill-opacity:1;fill-rule:nonzero;stroke:none;stroke-width:0.0352778"
       id="path46" />
    <path
       d="m 59.377701,105.7374 c 0,0.67451 -0.546805,1.22132 -1.221316,1.22132 -0.674511,0 -1.221317,-0.54681 -1.221317,-1.22132 0,-0.67451 0.546806,-1.22131 1.221317,-1.22131 0.674511,0 1.221316,0.5468 1.221316,1.22131"
       style="fill:#242e65;fill-opacity:1;fill-rule:nonzero;stroke:none;stroke-width:0.0352778"
       id="path48" />
    <g
       id="g50"
       transform="matrix(0.03527778,0,0,-0.03527778,15.373257,249.72472)">
      <g
         id="g52"
         clip-path="url(#clipPath56)">
        <path
           d="m 1274.53,4113.01 c 0,-14.47 -11.73,-26.21 -26.2,-26.21 -14.47,0 -26.21,11.74 -26.21,26.21 0,14.48 11.74,26.21 26.21,26.21 14.47,0 26.2,-11.73 26.2,-26.21"
           style="fill:#e8f8fe;fill-opacity:1;fill-rule:nonzero;stroke:none"
           id="path58" />
        <path
           d="m 1203.07,4055.5 c 0,-6.55 -5.31,-11.86 -11.86,-11.86 -6.54,0 -11.85,5.31 -11.85,11.86 0,6.54 5.31,11.85 11.85,11.85 6.55,0 11.86,-5.31 11.86,-11.85"
           style="fill:#e8f8fe;fill-opacity:1;fill-rule:nonzero;stroke:none"
           id="path60" />
      </g>
    </g>
    <path
       d="m 71.469513,105.7374 c 0,1.20403 -0.976136,2.17982 -2.179814,2.17982 -1.20403,0 -2.179814,-0.97579 -2.179814,-2.17982 0,-1.20368 0.975784,-2.17981 2.179814,-2.17981 1.203678,0 2.179814,0.97613 2.179814,2.17981"
       style="fill:#51a9e0;fill-opacity:1;fill-rule:nonzero;stroke:none;stroke-width:0.0352778"
       id="path62" />
    <path
       d="m 70.511016,105.7374 c 0,0.67451 -0.546806,1.22132 -1.221317,1.22132 -0.674511,0 -1.221669,-0.54681 -1.221669,-1.22132 0,-0.67451 0.547158,-1.22131 1.221669,-1.22131 0.674511,0 1.221317,0.5468 1.221317,1.22131"
       style="fill:#242e65;fill-opacity:1;fill-rule:nonzero;stroke:none;stroke-width:0.0352778"
       id="path64" />
    <g
       id="g66"
       transform="matrix(0.03527778,0,0,-0.03527778,15.373257,249.72472)">
      <g
         id="g68"
         clip-path="url(#clipPath72)">
        <path
           d="m 1590.13,4113.01 c 0,-14.47 -11.74,-26.21 -26.21,-26.21 -14.48,0 -26.21,11.74 -26.21,26.21 0,14.48 11.73,26.21 26.21,26.21 14.47,0 26.21,-11.73 26.21,-26.21"
           style="fill:#e8f8fe;fill-opacity:1;fill-rule:nonzero;stroke:none"
           id="path74" />
        <path
           d="m 1518.66,4055.5 c 0,-6.55 -5.31,-11.86 -11.86,-11.86 -6.55,0 -11.85,5.31 -11.85,11.86 0,6.54 5.3,11.85 11.85,11.85 6.55,0 11.86,-5.31 11.86,-11.85"
           style="fill:#e8f8fe;fill-opacity:1;fill-rule:nonzero;stroke:none"
           id="path76" />
      </g>
    </g>
    <path
       d="m 50.369097,106.06796 c 0.01115,0.0194 0.995962,-0.59585 1.005134,-0.58032 0.0099,0.0176 -0.721783,1.82562 -0.708377,1.84855 0.02752,0.0476 2.791883,-1.68204 2.822222,-1.62913 0.01729,0.0293 -1.501422,2.45005 -1.481667,2.48462 0.02963,0.0508 2.879725,-1.73249 2.910064,-1.67993 0.01623,0.0275 -0.610305,1.93957 -0.590902,1.97344 0.0071,0.012 0.997302,-0.59196 1.004358,-0.57962"
       style="fill:none;stroke:#f89dd2;stroke-width:0.529167;stroke-linecap:round;stroke-linejoin:round;stroke-miterlimit:4;stroke-dasharray:none;stroke-opacity:1"
       id="path78" />
    <path
       d="m 72.622391,106.64757 c 0.0194,0.0335 1.743781,-1.04316 1.759303,-1.01565 0.01588,0.0275 -1.869722,2.4705 -1.848556,2.50719 0.04163,0.0723 4.258028,-2.5661 4.304242,-2.48532 0.02011,0.0346 -2.013303,2.73756 -1.989666,2.77813 0.02399,0.0416 2.356202,-1.41781 2.38125,-1.37478"
       style="fill:none;stroke:#f89dd2;stroke-width:0.529167;stroke-linecap:round;stroke-linejoin:round;stroke-miterlimit:4;stroke-dasharray:none;stroke-opacity:1"
       id="path80" />
  </g>
</svg>
